<mxfile host="app.diagrams.net" agent="Mozilla/5.0 (Windows NT 10.0; Win64; x64) AppleWebKit/537.36 (KHTML, like Gecko) Chrome/131.0.0.0 Safari/537.36 Edg/131.0.0.0" version="25.0.3">
  <diagram id="C5RBs43oDa-KdzZeNtuy" name="Page-1">
    <mxGraphModel dx="1913" dy="2094" grid="1" gridSize="10" guides="1" tooltips="1" connect="1" arrows="1" fold="1" page="1" pageScale="1" pageWidth="827" pageHeight="1169" math="0" shadow="0">
      <root>
        <mxCell id="WIyWlLk6GJQsqaUBKTNV-0" />
        <mxCell id="WIyWlLk6GJQsqaUBKTNV-1" parent="WIyWlLk6GJQsqaUBKTNV-0" />
        <mxCell id="tL7syoq4y8X1-nLDP6SC-7" value="ConcretePoolParty" style="swimlane;fontStyle=1;align=center;verticalAlign=top;childLayout=stackLayout;horizontal=1;startSize=26;horizontalStack=0;resizeParent=1;resizeParentMax=0;resizeLast=0;collapsible=1;marginBottom=0;whiteSpace=wrap;html=1;" vertex="1" parent="WIyWlLk6GJQsqaUBKTNV-1">
          <mxGeometry x="290" y="-440" width="190" height="100" as="geometry" />
        </mxCell>
        <mxCell id="tL7syoq4y8X1-nLDP6SC-9" value="" style="line;strokeWidth=1;fillColor=none;align=left;verticalAlign=middle;spacingTop=-1;spacingLeft=3;spacingRight=3;rotatable=0;labelPosition=right;points=[];portConstraint=eastwest;strokeColor=inherit;" vertex="1" parent="tL7syoq4y8X1-nLDP6SC-7">
          <mxGeometry y="26" width="190" height="8" as="geometry" />
        </mxCell>
        <mxCell id="tL7syoq4y8X1-nLDP6SC-10" value="+ getName(): String&lt;div&gt;...&lt;br&gt;&lt;div&gt;+ getBaseTicketPrice(): double&lt;/div&gt;&lt;div&gt;+ getReminder(): String&lt;/div&gt;&lt;/div&gt;" style="text;strokeColor=none;fillColor=none;align=left;verticalAlign=top;spacingLeft=4;spacingRight=4;overflow=hidden;rotatable=0;points=[[0,0.5],[1,0.5]];portConstraint=eastwest;whiteSpace=wrap;html=1;" vertex="1" parent="tL7syoq4y8X1-nLDP6SC-7">
          <mxGeometry y="34" width="190" height="66" as="geometry" />
        </mxCell>
        <mxCell id="tL7syoq4y8X1-nLDP6SC-11" value="ConcreteVillaParty" style="swimlane;fontStyle=1;align=center;verticalAlign=top;childLayout=stackLayout;horizontal=1;startSize=26;horizontalStack=0;resizeParent=1;resizeParentMax=0;resizeLast=0;collapsible=1;marginBottom=0;whiteSpace=wrap;html=1;" vertex="1" parent="WIyWlLk6GJQsqaUBKTNV-1">
          <mxGeometry x="290" y="-191" width="190" height="100" as="geometry" />
        </mxCell>
        <mxCell id="tL7syoq4y8X1-nLDP6SC-13" value="" style="line;strokeWidth=1;fillColor=none;align=left;verticalAlign=middle;spacingTop=-1;spacingLeft=3;spacingRight=3;rotatable=0;labelPosition=right;points=[];portConstraint=eastwest;strokeColor=inherit;" vertex="1" parent="tL7syoq4y8X1-nLDP6SC-11">
          <mxGeometry y="26" width="190" height="8" as="geometry" />
        </mxCell>
        <mxCell id="tL7syoq4y8X1-nLDP6SC-14" value="+ getName(): String&lt;div&gt;...&lt;br&gt;&lt;div&gt;+ getBaseTicketPrice(): double&lt;/div&gt;&lt;div&gt;+ getReminder(): String&lt;/div&gt;&lt;/div&gt;" style="text;strokeColor=none;fillColor=none;align=left;verticalAlign=top;spacingLeft=4;spacingRight=4;overflow=hidden;rotatable=0;points=[[0,0.5],[1,0.5]];portConstraint=eastwest;whiteSpace=wrap;html=1;" vertex="1" parent="tL7syoq4y8X1-nLDP6SC-11">
          <mxGeometry y="34" width="190" height="66" as="geometry" />
        </mxCell>
        <mxCell id="tL7syoq4y8X1-nLDP6SC-15" value="ConcreteBBQParty" style="swimlane;fontStyle=1;align=center;verticalAlign=top;childLayout=stackLayout;horizontal=1;startSize=26;horizontalStack=0;resizeParent=1;resizeParentMax=0;resizeLast=0;collapsible=1;marginBottom=0;whiteSpace=wrap;html=1;" vertex="1" parent="WIyWlLk6GJQsqaUBKTNV-1">
          <mxGeometry x="290" y="-315" width="190" height="100" as="geometry" />
        </mxCell>
        <mxCell id="tL7syoq4y8X1-nLDP6SC-17" value="" style="line;strokeWidth=1;fillColor=none;align=left;verticalAlign=middle;spacingTop=-1;spacingLeft=3;spacingRight=3;rotatable=0;labelPosition=right;points=[];portConstraint=eastwest;strokeColor=inherit;" vertex="1" parent="tL7syoq4y8X1-nLDP6SC-15">
          <mxGeometry y="26" width="190" height="8" as="geometry" />
        </mxCell>
        <mxCell id="tL7syoq4y8X1-nLDP6SC-18" value="+ getName(): String&lt;div&gt;...&lt;br&gt;&lt;div&gt;+ getBaseTicketPrice(): double&lt;/div&gt;&lt;div&gt;+ getReminder(): String&lt;/div&gt;&lt;/div&gt;" style="text;strokeColor=none;fillColor=none;align=left;verticalAlign=top;spacingLeft=4;spacingRight=4;overflow=hidden;rotatable=0;points=[[0,0.5],[1,0.5]];portConstraint=eastwest;whiteSpace=wrap;html=1;" vertex="1" parent="tL7syoq4y8X1-nLDP6SC-15">
          <mxGeometry y="34" width="190" height="66" as="geometry" />
        </mxCell>
        <mxCell id="tL7syoq4y8X1-nLDP6SC-24" value="&lt;p style=&quot;margin:0px;margin-top:4px;text-align:center;&quot;&gt;&lt;i&gt;&amp;lt;&amp;lt;Interface&amp;gt;&amp;gt;&lt;/i&gt;&lt;br&gt;&lt;b&gt;AbstractParty&lt;/b&gt;&lt;/p&gt;&lt;hr size=&quot;1&quot; style=&quot;border-style:solid;&quot;&gt;&lt;p style=&quot;margin:0px;margin-left:4px;&quot;&gt;+ name: String&lt;/p&gt;&lt;p style=&quot;margin:0px;margin-left:4px;&quot;&gt;+ date: date&lt;br&gt;+ location: String&lt;/p&gt;&lt;p style=&quot;margin:0px;margin-left:4px;&quot;&gt;+ capienzaMax: int&lt;/p&gt;&lt;p style=&quot;margin:0px;margin-left:4px;&quot;&gt;+ capienzaCorrente: int&lt;/p&gt;&lt;p style=&quot;margin:0px;margin-left:4px;&quot;&gt;+ baseTicketPrice: double&lt;/p&gt;&lt;p style=&quot;margin:0px;margin-left:4px;&quot;&gt;+ reminder: String&lt;/p&gt;&lt;p style=&quot;margin:0px;margin-left:4px;&quot;&gt;+ listaInviti: ArrayList &amp;lt;Inviti&amp;gt;&lt;/p&gt;&lt;hr size=&quot;1&quot; style=&quot;border-style:solid;&quot;&gt;&lt;p style=&quot;margin:0px;margin-left:4px;&quot;&gt;+ getName():String&lt;br style=&quot;padding: 0px; margin: 0px;&quot;&gt;+ getData():Date&lt;br style=&quot;padding: 0px; margin: 0px;&quot;&gt;+ getLocation():String&lt;br style=&quot;padding: 0px; margin: 0px;&quot;&gt;+ getCapienzaMax():int&lt;/p&gt;&lt;p style=&quot;margin:0px;margin-left:4px;&quot;&gt;+ getCapienzaCorrente(): int&lt;/p&gt;&lt;p style=&quot;margin:0px;margin-left:4px;&quot;&gt;+ getListaInviti(): ArrayList&amp;lt;Inviti&amp;gt;&lt;br style=&quot;padding: 0px; margin: 0px;&quot;&gt;+ setName(String)&lt;br style=&quot;padding: 0px; margin: 0px;&quot;&gt;+ setDate(Date)&lt;br style=&quot;padding: 0px; margin: 0px;&quot;&gt;+ setLocation(String)&lt;br style=&quot;padding: 0px; margin: 0px;&quot;&gt;+ setCapienzaMax(int)&lt;/p&gt;&lt;p style=&quot;margin:0px;margin-left:4px;&quot;&gt;+ addInvito(Invito)&lt;/p&gt;&lt;div style=&quot;padding: 0px; margin: 0px;&quot;&gt;&lt;br style=&quot;padding: 0px; margin: 0px;&quot;&gt;&lt;/div&gt;&lt;div style=&quot;padding: 0px; margin: 0px;&quot;&gt;&lt;br style=&quot;padding: 0px; margin: 0px; text-wrap-mode: nowrap;&quot;&gt;&lt;/div&gt;" style="verticalAlign=top;align=left;overflow=fill;html=1;whiteSpace=wrap;" vertex="1" parent="WIyWlLk6GJQsqaUBKTNV-1">
          <mxGeometry x="290" y="-1030" width="190" height="340" as="geometry" />
        </mxCell>
        <mxCell id="tL7syoq4y8X1-nLDP6SC-26" value="" style="endArrow=block;dashed=1;endFill=0;endSize=12;html=1;rounded=0;" edge="1" parent="WIyWlLk6GJQsqaUBKTNV-1" source="tL7syoq4y8X1-nLDP6SC-39" target="tL7syoq4y8X1-nLDP6SC-24">
          <mxGeometry width="160" relative="1" as="geometry">
            <mxPoint x="190" y="-770" as="sourcePoint" />
            <mxPoint x="350" y="-770" as="targetPoint" />
            <Array as="points">
              <mxPoint x="40" y="-395" />
              <mxPoint x="40" y="-860" />
            </Array>
          </mxGeometry>
        </mxCell>
        <mxCell id="tL7syoq4y8X1-nLDP6SC-27" value="" style="endArrow=block;dashed=1;endFill=0;endSize=12;html=1;rounded=0;" edge="1" parent="WIyWlLk6GJQsqaUBKTNV-1" source="tL7syoq4y8X1-nLDP6SC-42" target="tL7syoq4y8X1-nLDP6SC-24">
          <mxGeometry width="160" relative="1" as="geometry">
            <mxPoint x="144" y="-924" as="sourcePoint" />
            <mxPoint x="340" y="-1150" as="targetPoint" />
            <Array as="points">
              <mxPoint x="40" y="-270" />
              <mxPoint x="40" y="-860" />
            </Array>
          </mxGeometry>
        </mxCell>
        <mxCell id="tL7syoq4y8X1-nLDP6SC-28" value="" style="endArrow=block;dashed=1;endFill=0;endSize=12;html=1;rounded=0;" edge="1" parent="WIyWlLk6GJQsqaUBKTNV-1" source="tL7syoq4y8X1-nLDP6SC-41" target="tL7syoq4y8X1-nLDP6SC-24">
          <mxGeometry width="160" relative="1" as="geometry">
            <mxPoint x="154" y="-914" as="sourcePoint" />
            <mxPoint x="350" y="-1140" as="targetPoint" />
            <Array as="points">
              <mxPoint x="40" y="-141" />
              <mxPoint x="40" y="-860" />
            </Array>
          </mxGeometry>
        </mxCell>
        <mxCell id="tL7syoq4y8X1-nLDP6SC-29" value="" style="html=1;verticalAlign=bottom;labelBackgroundColor=none;endArrow=open;endFill=0;dashed=1;rounded=0;" edge="1" parent="WIyWlLk6GJQsqaUBKTNV-1" source="tL7syoq4y8X1-nLDP6SC-30" target="tL7syoq4y8X1-nLDP6SC-7">
          <mxGeometry width="160" relative="1" as="geometry">
            <mxPoint x="157" y="-511" as="sourcePoint" />
            <mxPoint x="317" y="-511" as="targetPoint" />
          </mxGeometry>
        </mxCell>
        <mxCell id="tL7syoq4y8X1-nLDP6SC-30" value="PartyFactory" style="swimlane;fontStyle=1;align=center;verticalAlign=top;childLayout=stackLayout;horizontal=1;startSize=26;horizontalStack=0;resizeParent=1;resizeParentMax=0;resizeLast=0;collapsible=1;marginBottom=0;whiteSpace=wrap;html=1;" vertex="1" parent="WIyWlLk6GJQsqaUBKTNV-1">
          <mxGeometry x="587" y="-300" width="210" height="60" as="geometry" />
        </mxCell>
        <mxCell id="tL7syoq4y8X1-nLDP6SC-32" value="" style="line;strokeWidth=1;fillColor=none;align=left;verticalAlign=middle;spacingTop=-1;spacingLeft=3;spacingRight=3;rotatable=0;labelPosition=right;points=[];portConstraint=eastwest;strokeColor=inherit;" vertex="1" parent="tL7syoq4y8X1-nLDP6SC-30">
          <mxGeometry y="26" width="210" height="8" as="geometry" />
        </mxCell>
        <mxCell id="tL7syoq4y8X1-nLDP6SC-33" value="+ createParty(): AbstractParty" style="text;strokeColor=none;fillColor=none;align=left;verticalAlign=top;spacingLeft=4;spacingRight=4;overflow=hidden;rotatable=0;points=[[0,0.5],[1,0.5]];portConstraint=eastwest;whiteSpace=wrap;html=1;" vertex="1" parent="tL7syoq4y8X1-nLDP6SC-30">
          <mxGeometry y="34" width="210" height="26" as="geometry" />
        </mxCell>
        <mxCell id="tL7syoq4y8X1-nLDP6SC-34" value="" style="html=1;verticalAlign=bottom;labelBackgroundColor=none;endArrow=open;endFill=0;dashed=1;rounded=0;" edge="1" parent="WIyWlLk6GJQsqaUBKTNV-1" source="tL7syoq4y8X1-nLDP6SC-30" target="tL7syoq4y8X1-nLDP6SC-15">
          <mxGeometry width="160" relative="1" as="geometry">
            <mxPoint x="177" y="-340" as="sourcePoint" />
            <mxPoint x="327" y="-292" as="targetPoint" />
          </mxGeometry>
        </mxCell>
        <mxCell id="tL7syoq4y8X1-nLDP6SC-35" value="" style="html=1;verticalAlign=bottom;labelBackgroundColor=none;endArrow=open;endFill=0;dashed=1;rounded=0;" edge="1" parent="WIyWlLk6GJQsqaUBKTNV-1" source="tL7syoq4y8X1-nLDP6SC-30" target="tL7syoq4y8X1-nLDP6SC-11">
          <mxGeometry width="160" relative="1" as="geometry">
            <mxPoint x="187" y="-330" as="sourcePoint" />
            <mxPoint x="337" y="-282" as="targetPoint" />
          </mxGeometry>
        </mxCell>
        <mxCell id="tL7syoq4y8X1-nLDP6SC-36" value="create" style="edgeLabel;html=1;align=center;verticalAlign=middle;resizable=0;points=[];" vertex="1" connectable="0" parent="tL7syoq4y8X1-nLDP6SC-35">
          <mxGeometry x="-0.157" y="1" relative="1" as="geometry">
            <mxPoint x="-2" y="-125" as="offset" />
          </mxGeometry>
        </mxCell>
        <mxCell id="tL7syoq4y8X1-nLDP6SC-37" value="create" style="edgeLabel;html=1;align=center;verticalAlign=middle;resizable=0;points=[];" vertex="1" connectable="0" parent="WIyWlLk6GJQsqaUBKTNV-1">
          <mxGeometry x="479.9956893898672" y="-210.00489074451002" as="geometry">
            <mxPoint x="60" y="13" as="offset" />
          </mxGeometry>
        </mxCell>
        <mxCell id="tL7syoq4y8X1-nLDP6SC-38" value="create" style="edgeLabel;html=1;align=center;verticalAlign=middle;resizable=0;points=[];" vertex="1" connectable="0" parent="WIyWlLk6GJQsqaUBKTNV-1">
          <mxGeometry x="539.9956893898673" y="-270.00489074451" as="geometry">
            <mxPoint x="-1" y="-3" as="offset" />
          </mxGeometry>
        </mxCell>
        <mxCell id="tL7syoq4y8X1-nLDP6SC-40" value="" style="endArrow=block;dashed=1;endFill=0;endSize=12;html=1;rounded=0;" edge="1" parent="WIyWlLk6GJQsqaUBKTNV-1" source="tL7syoq4y8X1-nLDP6SC-7" target="tL7syoq4y8X1-nLDP6SC-39">
          <mxGeometry width="160" relative="1" as="geometry">
            <mxPoint x="290" y="-395" as="sourcePoint" />
            <mxPoint x="290" y="-860" as="targetPoint" />
            <Array as="points" />
          </mxGeometry>
        </mxCell>
        <mxCell id="tL7syoq4y8X1-nLDP6SC-39" value="implements" style="text;html=1;align=center;verticalAlign=middle;resizable=0;points=[];autosize=1;strokeColor=none;fillColor=none;" vertex="1" parent="WIyWlLk6GJQsqaUBKTNV-1">
          <mxGeometry x="130" y="-410" width="80" height="30" as="geometry" />
        </mxCell>
        <mxCell id="tL7syoq4y8X1-nLDP6SC-43" value="" style="endArrow=block;dashed=1;endFill=0;endSize=12;html=1;rounded=0;" edge="1" parent="WIyWlLk6GJQsqaUBKTNV-1" source="tL7syoq4y8X1-nLDP6SC-15" target="tL7syoq4y8X1-nLDP6SC-42">
          <mxGeometry width="160" relative="1" as="geometry">
            <mxPoint x="290" y="-270" as="sourcePoint" />
            <mxPoint x="290" y="-860" as="targetPoint" />
            <Array as="points" />
          </mxGeometry>
        </mxCell>
        <mxCell id="tL7syoq4y8X1-nLDP6SC-42" value="implements" style="text;html=1;align=center;verticalAlign=middle;resizable=0;points=[];autosize=1;strokeColor=none;fillColor=none;" vertex="1" parent="WIyWlLk6GJQsqaUBKTNV-1">
          <mxGeometry x="130" y="-285" width="80" height="30" as="geometry" />
        </mxCell>
        <mxCell id="tL7syoq4y8X1-nLDP6SC-44" value="" style="endArrow=block;dashed=1;endFill=0;endSize=12;html=1;rounded=0;" edge="1" parent="WIyWlLk6GJQsqaUBKTNV-1" source="tL7syoq4y8X1-nLDP6SC-11" target="tL7syoq4y8X1-nLDP6SC-41">
          <mxGeometry width="160" relative="1" as="geometry">
            <mxPoint x="290" y="-141" as="sourcePoint" />
            <mxPoint x="290" y="-860" as="targetPoint" />
            <Array as="points" />
          </mxGeometry>
        </mxCell>
        <mxCell id="tL7syoq4y8X1-nLDP6SC-41" value="implements" style="text;html=1;align=center;verticalAlign=middle;resizable=0;points=[];autosize=1;strokeColor=none;fillColor=none;" vertex="1" parent="WIyWlLk6GJQsqaUBKTNV-1">
          <mxGeometry x="130" y="-156" width="80" height="30" as="geometry" />
        </mxCell>
      </root>
    </mxGraphModel>
  </diagram>
</mxfile>
